{
  "accessors": [
    {
      "bufferView": 0,
      "componentType": 5126,
      "type": "VEC3",
      "count": 144,
      "min": [-1.5, -1.5, -1.5],
      "max": [1.5, 1.5, 1.5]
    },
    {
      "bufferView": 1,
      "componentType": 5126,
      "type": "VEC3",
      "count": 144
    },
    {
      "bufferView": 2,
      "componentType": 5126,
      "type": "VEC2",
      "count": 144
    },
    {
      "bufferView": 3,
      "componentType": 5123,
      "type": "SCALAR",
      "count": 828
    }
  ],
  "asset": {
    "generator": "https://github.com/prideout/normal-map-test",
    "version": "2.0"
  },
  "bufferViews": [
    {
      "buffer": 0,
      "byteLength": 1728
    },
    {
      "buffer": 0,
      "byteLength": 1728,
      "byteOffset": 1728
    },
    {
      "buffer": 0,
      "byteLength": 1152,
      "byteOffset": 3456
    },
    {
      "buffer": 0,
      "byteLength": 1656,
      "byteOffset": 4608
    }
  ],
  "buffers": [
    {
      "uri": "test_lo.bin",
      "byteLength": 6264
    }
  ],
  "meshes": [
    {
      "name": "octasphere",
      "primitives": [
        {
          "indices": 3,
          "attributes": {
            "POSITION": 0,
            "NORMAL": 1,
            "TEXCOORD_0": 2
          }
        }
      ]
    }
  ],
  "nodes": [
    {
      "mesh": 0,
      "name": "root"
    }
  ],
  "scenes": [
    {
      "nodes": [ 0 ]
    }
  ]
}
