{
  "accessors": [
    {
      "bufferView": 0,
      "componentType": 5126,
      "type": "VEC3",
      "count": 3672,
      "min": [-1.5, -1.5, -1.5],
      "max": [1.5, 1.5, 1.5]
    },
    {
      "bufferView": 1,
      "componentType": 5126,
      "type": "VEC3",
      "count": 3672
    },
    {
      "bufferView": 2,
      "componentType": 5126,
      "type": "VEC2",
      "count": 3672
    },
    {
      "bufferView": 3,
      "componentType": 5123,
      "type": "SCALAR",
      "count": 21996
    }
  ],
  "asset": {
    "generator": "https://github.com/prideout/normal-map-test",
    "version": "2.0"
  },
  "bufferViews": [
    {
      "buffer": 0,
      "byteLength": 44064
    },
    {
      "buffer": 0,
      "byteLength": 44064,
      "byteOffset": 44064
    },
    {
      "buffer": 0,
      "byteLength": 29376,
      "byteOffset": 88128
    },
    {
      "buffer": 0,
      "byteLength": 43992,
      "byteOffset": 117504
    }
  ],
  "buffers": [
    {
      "uri": "test_hi.bin",
      "byteLength": 161496
    }
  ],
  "meshes": [
    {
      "name": "octasphere",
      "primitives": [
        {
          "indices": 3,
          "attributes": {
            "POSITION": 0,
            "NORMAL": 1,
            "TEXCOORD_0": 2
          }
        }
      ]
    }
  ],
  "nodes": [
    {
      "mesh": 0,
      "name": "root"
    }
  ],
  "scenes": [
    {
      "nodes": [ 0 ]
    }
  ]
}
