{
  "accessors": [
    {
      "bufferView": 0,
      "componentType": 5126,
      "type": "VEC3",
      "count": 1224,
      "min": [-1, -1, -1],
      "max": [1, 1, 1]
    },
    {
      "bufferView": 1,
      "componentType": 5126,
      "type": "VEC3",
      "count": 1224
    },
    {
      "bufferView": 2,
      "componentType": 5123,
      "type": "SCALAR",
      "count": 7332
    }
  ],
  "asset": {
    "generator": "https://github.com/prideout/normal-map-test",
    "version": "2.0"
  },
  "bufferViews": [
    {
      "buffer": 0,
      "byteLength": 14688
    },
    {
      "buffer": 0,
      "byteLength": 14688,
      "byteOffset": 14688
    },
    {
      "buffer": 0,
      "byteLength": 14664,
      "byteOffset": 29376
    }
  ],
  "buffers": [
    {
      "uri": "test.bin",
      "byteLength": 44040
    }
  ],
  "meshes": [
    {
      "name": "octasphere",
      "primitives": [
        {
          "indices": 2,
          "attributes": {
            "POSITION": 0,
            "NORMAL": 1
          }
        }
      ]
    }
  ],
  "nodes": [
    {
      "mesh": 0,
      "name": "root"
    }
  ],
  "scenes": [
    {
      "nodes": [ 0 ]
    }
  ]
}
